<?xml version="1.0" standalone="no"?>
<!DOCTYPE svg PUBLIC "-//W3C//DTD SVG 20010904//EN"
 "http://www.w3.org/TR/2001/REC-SVG-20010904/DTD/svg10.dtd">
<svg version="1.0" xmlns="http://www.w3.org/2000/svg"
 width="984.000000pt" height="984.000000pt" viewBox="0 0 984.000000 984.000000"
 preserveAspectRatio="xMidYMid meet">
<metadata>
Created by potrace 1.14, written by Peter Selinger 2001-2017
</metadata>
<g transform="translate(0.000000,984.000000) scale(0.100000,-0.100000)"
fill="#000000" stroke="none">
<path d="M4852 9120 c-12 -5 -29 -15 -37 -22 -9 -7 -21 -18 -28 -23 -7 -6 -23
-18 -37 -27 -37 -25 -104 -73 -231 -166 -63 -46 -123 -90 -134 -98 -67 -47
-172 -124 -182 -133 -7 -6 -17 -11 -23 -11 -5 0 -10 -4 -10 -8 0 -4 -13 -16
-30 -25 -16 -10 -35 -23 -42 -30 -7 -7 -69 -52 -138 -101 -69 -49 -127 -92
-130 -96 -3 -3 -22 -16 -43 -29 -21 -13 -43 -28 -50 -35 -6 -6 -43 -34 -82
-61 -38 -26 -82 -58 -96 -69 -14 -12 -36 -28 -49 -36 -12 -8 -56 -40 -98 -71
-88 -64 -340 -247 -372 -269 -42 -29 -125 -91 -155 -115 -16 -14 -35 -25 -42
-25 -6 0 -13 -4 -15 -8 -1 -4 -21 -21 -43 -37 -22 -17 -44 -33 -50 -37 -118
-89 -399 -288 -405 -288 -5 0 -10 -4 -12 -9 -1 -5 -22 -21 -44 -37 -62 -43
-168 -119 -269 -194 -157 -116 -445 -325 -463 -335 -9 -5 -19 -12 -22 -15 -17
-18 -272 -200 -280 -200 -6 0 -10 -4 -10 -8 0 -4 -13 -16 -30 -25 -16 -10 -35
-23 -42 -30 -13 -13 -47 -38 -170 -123 -32 -23 -70 -50 -83 -62 -13 -11 -36
-29 -52 -38 -15 -10 -44 -30 -63 -45 -28 -21 -338 -246 -438 -317 -91 -65
-192 -144 -192 -150 0 -4 -12 -20 -26 -37 -24 -28 -94 -162 -98 -188 -1 -7 -5
-18 -9 -24 -5 -7 -6 -13 -4 -13 2 0 -1 -24 -8 -54 -12 -49 -13 -205 -2 -251
40 -165 159 -307 312 -372 46 -19 64 -24 135 -38 63 -13 178 -6 260 15 25 6
55 14 67 17 l22 5 0 -1758 c0 -968 1 -1760 2 -1761 2 -4 6 -22 8 -33 2 -20 60
-71 90 -80 50 -14 1741 -11 1746 3 2 7 6 33 9 60 6 64 27 160 38 171 4 6 8 17
8 25 0 9 14 45 30 79 17 35 30 66 30 68 0 2 -346 4 -770 4 -424 0 -770 3 -770
8 -3 43 -2 3414 1 3416 2 2 54 38 114 81 61 43 135 97 167 121 31 24 61 44 66
44 6 0 12 4 14 8 2 4 35 30 73 57 39 27 75 53 80 58 49 39 160 117 166 117 5
0 18 10 31 23 13 12 43 35 68 52 25 16 47 32 50 35 16 17 80 60 88 60 6 0 12
4 14 8 2 5 93 73 203 152 110 80 205 148 210 152 6 5 42 30 80 58 39 27 75 53
80 57 6 5 33 24 60 43 28 18 52 37 55 40 3 3 28 22 55 40 28 19 52 37 53 42 2
4 9 8 15 8 7 0 24 10 37 23 14 12 48 38 75 57 28 19 55 38 60 42 15 13 135 99
190 138 28 19 55 38 60 43 21 17 191 139 217 155 16 9 28 20 28 25 0 4 6 7 14
7 8 0 16 3 18 8 3 6 306 228 372 272 31 21 130 93 136 100 3 3 13 10 22 15 23
14 449 321 468 337 8 7 44 33 80 58 91 62 117 82 147 108 14 12 29 22 34 22 4
0 28 -16 53 -35 26 -19 51 -35 56 -35 6 0 10 -4 10 -8 0 -4 12 -15 28 -24 15
-9 38 -26 52 -37 14 -11 54 -41 90 -68 36 -26 67 -51 68 -55 2 -5 10 -8 18 -8
8 0 17 -7 20 -15 4 -8 10 -15 15 -15 5 0 31 -17 58 -37 26 -21 58 -45 71 -53
12 -8 28 -20 34 -25 6 -6 52 -39 101 -75 50 -35 95 -68 100 -72 6 -5 53 -40
105 -78 52 -38 100 -73 105 -78 6 -4 50 -37 100 -72 49 -36 97 -70 105 -77 15
-12 180 -134 230 -170 14 -10 118 -86 233 -170 114 -84 210 -153 212 -153 3 0
13 -8 23 -17 19 -19 69 -57 107 -83 75 -50 215 -156 215 -162 0 -4 5 -8 10 -8
8 0 212 -145 270 -193 8 -7 40 -30 70 -52 30 -21 58 -44 62 -50 5 -6 8 -6 8 0
0 6 3 6 8 -1 6 -9 184 -141 452 -336 36 -26 74 -56 86 -66 11 -11 25 -21 31
-23 6 -2 23 -14 39 -26 16 -13 79 -59 139 -103 61 -44 120 -88 132 -98 13 -9
45 -33 73 -52 l50 -35 0 -60 c1 -63 1 -3236 0 -3317 l0 -48 -829 0 -828 0 27
-58 c50 -105 76 -193 87 -297 3 -27 10 -53 16 -57 6 -4 426 -6 933 -5 l921 2
35 27 c21 16 42 43 49 65 9 29 12 428 12 1785 -1 1024 3 1748 8 1748 5 0 17
-4 27 -9 70 -37 244 -56 347 -39 122 20 252 94 325 185 19 24 40 49 46 56 16
19 63 119 67 142 1 11 6 25 10 32 11 18 16 192 7 243 -10 58 -21 98 -34 135
-7 19 -35 75 -60 119 -36 65 -102 129 -216 211 -58 41 -115 82 -127 91 -13 9
-62 45 -110 80 -49 35 -99 72 -113 83 -14 12 -30 21 -37 21 -6 0 -13 4 -15 8
-1 5 -52 44 -113 88 -60 43 -112 81 -115 84 -3 3 -18 14 -35 24 -16 11 -34 23
-40 28 -5 5 -50 38 -100 73 -49 35 -96 69 -102 75 -14 11 -95 69 -121 85 -9 6
-25 18 -36 28 -11 10 -51 38 -88 63 -37 25 -72 52 -79 60 -6 8 -15 14 -20 14
-5 0 -17 7 -26 15 -10 8 -99 73 -198 144 -99 72 -185 134 -190 138 -41 33 -85
63 -91 63 -4 0 -15 10 -25 22 -11 11 -19 17 -19 12 0 -5 -4 -4 -8 1 -4 6 -47
40 -97 75 -49 35 -92 67 -95 70 -3 3 -13 10 -22 15 -38 23 -223 160 -226 167
-2 4 -8 8 -13 8 -5 0 -17 6 -26 14 -59 48 -112 84 -117 79 -3 -4 -6 -1 -6 5 0
5 -16 20 -35 32 -20 12 -41 27 -48 34 -6 6 -29 22 -49 35 -21 12 -38 27 -38
32 0 5 -4 9 -9 9 -6 0 -78 50 -161 110 -82 61 -154 110 -158 110 -4 0 -14 9
-22 20 -8 11 -20 20 -27 20 -7 0 -13 5 -13 10 0 6 -7 10 -15 10 -8 0 -15 4
-15 8 0 5 -12 15 -27 23 -15 8 -35 21 -44 29 -8 8 -42 33 -73 55 -32 22 -64
46 -71 53 -8 6 -17 12 -20 12 -4 0 -22 12 -40 28 -18 15 -59 45 -90 67 -32 22
-63 45 -69 50 -7 6 -19 15 -28 20 -39 24 -363 261 -366 267 -2 5 -10 8 -18 8
-8 0 -14 3 -14 8 0 4 -20 20 -45 35 -25 16 -45 33 -45 38 0 5 -4 9 -10 9 -5 0
-135 91 -287 201 -153 111 -292 208 -310 215 -37 16 -77 17 -111 4z"/>
<path d="M3815 5272 c-42 -37 -93 -81 -224 -191 -100 -85 -129 -123 -102 -133
4 -1 33 -32 63 -67 l55 -65 -22 -20 c-13 -12 -44 -39 -70 -61 -26 -22 -65 -57
-86 -77 -22 -21 -42 -38 -45 -38 -4 0 -15 -9 -25 -21 -14 -16 -22 -18 -36 -10
-10 6 -15 11 -11 11 3 0 -6 12 -20 28 -15 15 -50 54 -79 87 l-52 59 -63 -54
c-35 -30 -74 -64 -88 -76 -14 -12 -61 -53 -105 -90 -44 -38 -85 -73 -91 -79
-6 -5 -30 -25 -53 -44 -22 -19 -41 -39 -41 -43 0 -8 87 -114 142 -172 10 -11
18 -23 18 -27 0 -4 -41 -43 -92 -86 -50 -43 -105 -91 -122 -107 -17 -15 -42
-38 -56 -50 -66 -56 -154 -187 -165 -245 -2 -11 -6 -25 -9 -29 -7 -11 -17 -85
-18 -134 0 -46 17 -143 36 -193 19 -49 41 -100 46 -105 3 -3 11 -16 18 -30 19
-40 33 -61 97 -140 55 -69 200 -220 211 -220 2 0 2 10 0 23 -3 12 -12 51 -19
87 -13 58 -16 211 -4 250 2 8 7 29 12 45 11 43 73 166 96 191 10 11 19 24 19
28 0 9 203 212 270 270 l44 38 26 -29 c14 -17 32 -39 40 -49 98 -121 227 -281
236 -290 5 -6 26 -31 45 -54 94 -117 134 -165 139 -170 3 -3 21 -25 40 -50 19
-25 39 -50 45 -56 5 -6 26 -30 45 -54 19 -24 50 -62 69 -84 64 -78 99 -121
135 -166 20 -25 45 -54 55 -65 9 -11 48 -58 86 -105 38 -47 102 -125 143 -173
72 -85 73 -88 58 -112 -16 -25 -836 -849 -896 -901 -71 -61 -144 -151 -174
-214 -26 -56 -30 -76 -29 -145 0 -44 6 -93 13 -110 8 -16 14 -32 15 -35 10
-43 124 -170 152 -170 7 0 13 -4 13 -8 0 -14 99 -42 149 -42 67 0 138 24 208
69 65 42 116 92 253 252 25 28 53 61 63 73 10 12 40 45 65 75 26 30 54 61 62
70 16 17 186 213 230 265 14 16 36 41 50 56 14 14 38 41 54 60 29 35 104 122
163 189 l32 36 26 -30 c15 -16 45 -52 68 -79 23 -27 96 -113 163 -190 66 -78
129 -152 140 -165 10 -13 33 -38 49 -56 17 -17 42 -47 57 -66 14 -19 35 -43
45 -54 11 -11 48 -54 83 -95 36 -41 69 -80 75 -86 5 -6 30 -35 54 -64 25 -29
50 -58 55 -64 6 -6 26 -29 45 -51 66 -79 176 -133 286 -139 90 -6 242 55 298
119 147 166 146 348 -4 513 -19 20 -99 109 -178 197 -79 88 -156 172 -170 186
-14 15 -53 57 -86 94 -33 37 -75 83 -94 103 -18 21 -65 72 -105 116 -39 43
-84 93 -101 110 -16 18 -66 72 -110 121 -44 48 -90 99 -102 111 -29 30 -29 35
7 70 16 16 30 35 30 43 0 8 3 12 6 8 3 -3 41 38 84 91 43 53 86 106 97 117 10
11 36 43 58 70 22 28 43 52 46 55 3 3 56 66 118 140 62 74 132 157 155 184 22
27 46 56 52 64 9 12 15 12 33 2 42 -22 135 -51 220 -70 83 -18 312 -22 371 -6
14 3 41 9 60 12 19 3 40 9 45 13 6 4 30 13 55 20 66 19 186 82 260 137 258
190 411 499 405 820 -2 96 -13 173 -34 242 -5 18 -10 35 -10 38 1 18 -18 6
-113 -73 -57 -49 -121 -101 -142 -118 -20 -16 -43 -36 -51 -42 -7 -7 -16 -13
-20 -13 -7 0 -68 -42 -76 -53 -3 -5 -8 -8 -10 -6 -2 1 -23 -8 -46 -19 -194
-100 -395 -100 -556 -1 -139 85 -178 225 -108 384 5 11 17 39 26 63 10 23 22
42 27 42 4 0 8 5 8 11 0 23 164 240 275 363 6 6 23 29 39 51 17 22 38 47 49
57 18 16 17 17 -5 24 -99 33 -302 38 -433 10 -222 -46 -452 -193 -595 -376
-19 -25 -37 -47 -40 -50 -13 -12 -80 -130 -103 -180 -29 -64 -65 -164 -72
-200 -3 -14 -8 -36 -11 -50 -3 -14 -8 -79 -9 -145 -4 -168 21 -280 93 -420 20
-38 40 -74 44 -80 5 -5 17 -21 27 -35 l19 -25 -231 -231 c-128 -127 -285 -286
-351 -352 l-118 -121 -42 46 c-22 25 -52 58 -66 73 -14 15 -59 64 -100 110
-41 45 -91 99 -110 120 -53 57 -183 200 -203 224 -10 12 -50 57 -90 100 -40
43 -97 106 -127 139 -30 34 -67 74 -81 89 -15 16 -53 59 -85 95 -33 37 -70 79
-84 93 -30 32 -178 195 -202 222 -17 19 -16 21 22 53 21 18 45 39 53 46 28 28
150 134 167 146 15 11 22 8 43 -20 15 -17 42 -50 61 -71 l34 -39 77 64 c42 35
91 77 108 92 18 16 67 58 109 94 84 72 84 71 31 129 -15 17 -46 52 -68 78 -22
26 -46 53 -52 61 -11 11 -62 71 -257 298 -22 27 -52 61 -66 76 -14 15 -41 47
-60 71 -34 42 -60 70 -63 70 -1 0 -16 -13 -32 -28z"/>
</g>
</svg>
